<svg xmlns="http://www.w3.org/2000/svg" width="1200" height="84" viewBox="0 0 1200 84" role="img" aria-label="dsa journey"><title>dsa journey</title>
<defs><linearGradient id="g" x1="0" x2="1" spreadMethod="reflect"><stop offset="0" stop-color="#c4b5fd"/><stop offset=".5" stop-color="#22d3ee"/><stop offset="1" stop-color="#f472b6"/>
  <animateTransform attributeName="gradientTransform" type="translate" values="0 0;1 0;0 0" dur="6s" repeatCount="indefinite"/></linearGradient>
  <linearGradient id="ln" x1="0" x2="1"><stop offset="0" stop-color="#8b5cf6" stop-opacity="0"/><stop offset=".5" stop-color="#22d3ee"/><stop offset="1" stop-color="#f472b6" stop-opacity="0"/></linearGradient>
  <linearGradient id="fade" x1="0" x2="1"><stop offset="0" stop-color="#fff" stop-opacity="0"/><stop offset=".25" stop-color="#fff"/><stop offset=".75" stop-color="#fff"/><stop offset="1" stop-color="#fff" stop-opacity="0"/></linearGradient>
  <mask id="m"><rect width="1200" height="84" fill="url(#fade)"/></mask>
  <radialGradient id="pl" cx=".35" cy=".3" r=".8"><stop offset="0" stop-color="#fff"/><stop offset=".4" stop-color="#8b5cf6"/><stop offset="1" stop-color="#0b0d1a"/></radialGradient></defs>
<style>
  .n{font:700 15px 'JetBrains Mono', 'Cascadia Code', 'SF Mono', Consolas, Menlo, monospace;fill:#475569;letter-spacing:2px} .t{font:800 30px 'Segoe UI', 'SF Pro Display', system-ui, -apple-system, 'Helvetica Neue', Arial, sans-serif;letter-spacing:1px}
  .s{animation:s 3.5s ease-in-out infinite} @keyframes s{0%{transform:translateX(-420px)}100%{transform:translateX(1200px)}}
  .tw{animation:tw 3.5s ease-in-out infinite} @keyframes tw{0%,100%{opacity:.15}50%{opacity:.9}}
  .mo{animation:mo 6s linear infinite;transform-origin:752px 34px} @keyframes mo{to{transform:rotate(360deg)}}
</style>
<g mask="url(#m)"><circle cx="1175" cy="39" r="1" fill="#fff" class="tw" style="animation-delay:2.8s"/><circle cx="982" cy="56" r="1" fill="#fff" class="tw" style="animation-delay:3.0s"/><circle cx="785" cy="39" r="0.7" fill="#fff" class="tw" style="animation-delay:3.5s"/><circle cx="142" cy="10" r="0.5" fill="#fff" class="tw" style="animation-delay:2.3s"/><circle cx="1168" cy="7" r="0.5" fill="#fff" class="tw" style="animation-delay:2.8s"/><circle cx="729" cy="26" r="1" fill="#fff" class="tw" style="animation-delay:1.6s"/><circle cx="880" cy="59" r="0.7" fill="#fff" class="tw" style="animation-delay:0.9s"/><circle cx="789" cy="63" r="1" fill="#fff" class="tw" style="animation-delay:1.0s"/><circle cx="443" cy="48" r="1" fill="#fff" class="tw" style="animation-delay:2.5s"/><circle cx="570" cy="23" r="0.7" fill="#fff" class="tw" style="animation-delay:3.6s"/><circle cx="909" cy="44" r="0.7" fill="#fff" class="tw" style="animation-delay:2.1s"/><circle cx="850" cy="27" r="0.7" fill="#fff" class="tw" style="animation-delay:3.3s"/><circle cx="157" cy="43" r="0.5" fill="#fff" class="tw" style="animation-delay:1.9s"/><circle cx="418" cy="68" r="1" fill="#fff" class="tw" style="animation-delay:2.8s"/><circle cx="108" cy="41" r="0.5" fill="#fff" class="tw" style="animation-delay:3.9s"/><circle cx="676" cy="63" r="1" fill="#fff" class="tw" style="animation-delay:1.5s"/><circle cx="24" cy="40" r="1" fill="#fff" class="tw" style="animation-delay:1.6s"/><circle cx="983" cy="38" r="1" fill="#fff" class="tw" style="animation-delay:3.6s"/><circle cx="212" cy="63" r="0.7" fill="#fff" class="tw" style="animation-delay:2.6s"/><circle cx="1047" cy="45" r="1" fill="#fff" class="tw" style="animation-delay:1.0s"/><circle cx="263" cy="75" r="0.5" fill="#fff" class="tw" style="animation-delay:2.3s"/><circle cx="776" cy="33" r="0.7" fill="#fff" class="tw" style="animation-delay:1.8s"/><circle cx="107" cy="15" r="0.5" fill="#fff" class="tw" style="animation-delay:1.3s"/><circle cx="822" cy="69" r="1" fill="#fff" class="tw" style="animation-delay:0.4s"/><circle cx="547" cy="34" r="0.5" fill="#fff" class="tw" style="animation-delay:0.7s"/><circle cx="436" cy="66" r="0.5" fill="#fff" class="tw" style="animation-delay:2.8s"/><circle cx="766" cy="54" r="1" fill="#fff" class="tw" style="animation-delay:2.7s"/><circle cx="415" cy="29" r="1" fill="#fff" class="tw" style="animation-delay:3.0s"/><circle cx="1014" cy="51" r="0.7" fill="#fff" class="tw" style="animation-delay:2.5s"/><circle cx="195" cy="37" r="0.7" fill="#fff" class="tw" style="animation-delay:3.1s"/><circle cx="974" cy="49" r="1" fill="#fff" class="tw" style="animation-delay:2.2s"/><circle cx="497" cy="24" r="0.5" fill="#fff" class="tw" style="animation-delay:1.6s"/><circle cx="713" cy="29" r="0.7" fill="#fff" class="tw" style="animation-delay:0.6s"/><circle cx="550" cy="38" r="1" fill="#fff" class="tw" style="animation-delay:2.3s"/><circle cx="792" cy="62" r="1" fill="#fff" class="tw" style="animation-delay:0.0s"/><circle cx="585" cy="5" r="0.7" fill="#fff" class="tw" style="animation-delay:0.6s"/><circle cx="720" cy="58" r="0.7" fill="#fff" class="tw" style="animation-delay:3.4s"/><circle cx="313" cy="5" r="1" fill="#fff" class="tw" style="animation-delay:3.1s"/><circle cx="660" cy="13" r="0.5" fill="#fff" class="tw" style="animation-delay:0.5s"/><circle cx="174" cy="31" r="0.5" fill="#fff" class="tw" style="animation-delay:3.0s"/><circle cx="966" cy="23" r="0.5" fill="#fff" class="tw" style="animation-delay:1.0s"/><circle cx="1184" cy="11" r="0.7" fill="#fff" class="tw" style="animation-delay:3.0s"/><circle cx="695" cy="40" r="0.5" fill="#fff" class="tw" style="animation-delay:1.6s"/><circle cx="1114" cy="48" r="0.7" fill="#fff" class="tw" style="animation-delay:2.9s"/><circle cx="1175" cy="76" r="0.5" fill="#fff" class="tw" style="animation-delay:1.4s"/><circle cx="806" cy="80" r="1" fill="#fff" class="tw" style="animation-delay:1.1s"/></g>
<text x="600" y="44" text-anchor="middle"><tspan class="n">04 // </tspan><tspan class="t" fill="url(#g)">dsa journey</tspan></text>
<circle cx="752" cy="34" r="7" fill="url(#pl)"/>
<ellipse cx="752" cy="34" rx="13" ry="3.6" fill="none" stroke="#8b5cf6" stroke-opacity=".8" transform="rotate(-20 752 34)"/>
<g class="mo"><circle cx="772" cy="34" r="1.8" fill="#e2e8f0"/></g>
<rect x="300" y="66" width="600" height="1" fill="#1e1b4b"/>
<rect class="s" x="0" y="65" width="400" height="3" rx="1.5" fill="url(#ln)"/>
</svg>
